<?xml version="1.0" encoding="UTF-8"?>
<svg xmlns="http://www.w3.org/2000/svg" width="1200" height="630" viewBox="0 0 1200 630" fill="none">
  <rect width="1200" height="630" fill="#080809"/>
  <defs>
    <pattern id="grid" width="40" height="40" patternUnits="userSpaceOnUse">
      <path d="M 40 0 L 0 0 0 40" fill="none" stroke="#1a1a20" stroke-width="1"/>
    </pattern>
    <radialGradient id="glow" cx="0.5" cy="0.5" r="0.5">
      <stop offset="0%" stop-color="#c87941" stop-opacity="0.18"/>
      <stop offset="100%" stop-color="#c87941" stop-opacity="0"/>
    </radialGradient>
  </defs>
  <rect width="1200" height="630" fill="url(#grid)" opacity="0.35"/>
  <circle cx="900" cy="180" r="220" fill="url(#glow)"/>
  <circle cx="220" cy="500" r="180" fill="url(#glow)" fill-opacity="0.6"/>

  <g transform="translate(120 165) scale(4.5)">
    <rect width="32" height="32" rx="7" fill="#141418"/>
    <rect x="7" y="7" width="18" height="18" rx="3" fill="#c87941"/>
    <rect x="10" y="10" width="12" height="12" rx="1.5" fill="#141418"/>
    <line x1="7" y1="12" x2="2" y2="12" stroke="#5eead4" stroke-width="2.5" stroke-linecap="round"/>
    <line x1="7" y1="16" x2="2" y2="16" stroke="#5eead4" stroke-width="2.5" stroke-linecap="round"/>
    <line x1="7" y1="20" x2="2" y2="20" stroke="#5eead4" stroke-width="2.5" stroke-linecap="round"/>
    <line x1="25" y1="12" x2="30" y2="12" stroke="#5eead4" stroke-width="2.5" stroke-linecap="round"/>
    <line x1="25" y1="16" x2="30" y2="16" stroke="#5eead4" stroke-width="2.5" stroke-linecap="round"/>
    <line x1="25" y1="20" x2="30" y2="20" stroke="#5eead4" stroke-width="2.5" stroke-linecap="round"/>
  </g>

  <text x="360" y="250" fill="#f2f2f4" font-family="system-ui, -apple-system, sans-serif" font-size="72" font-weight="700" letter-spacing="-2">Ava Birtwistle</text>
  <text x="360" y="320" fill="#9b9ba8" font-family="system-ui, -apple-system, sans-serif" font-size="34" font-weight="500">Software and Systems</text>
  <text x="360" y="390" fill="#5eead4" font-family="ui-monospace, monospace" font-size="24" letter-spacing="1">HARDWARE / SOFTWARE / EMBEDDED</text>
  <rect x="360" y="430" width="320" height="3" fill="#c87941" opacity="0.8"/>
  <text x="360" y="490" fill="#7a7a88" font-family="ui-monospace, monospace" font-size="22">avabirtwistle.com</text>
</svg>
